<svg xmlns="http://www.w3.org/2000/svg" width="804.591" height="355.104" viewBox="0 0 804.591 355.104"><g style="clip-rule:evenodd;fill-rule:evenodd;image-rendering:optimizeQuality;shape-rendering:geometricPrecision;text-rendering:geometricPrecision"><path d="M665 6250c0 155 6 256 43 404 23 92 56 177 94 262 27 60 61 115 94 171 49 83 114 151 175 223 20 24 47 43 68 65 15 16 30 27 47 41 9 8 13 12 23 20l77 57c87 64 138 85 226 130 38 19 83 37 125 51 140 49 290 76 442 80h83c136-4 271-26 397-69l142-54c120-52 264-140 359-229 34-32 69-61 101-95 16-17 30-37 48-53 12 22 116 118 137 134 102 83 221 165 344 215l135 51c25 8 47 14 73 22l112 25c16 2 30 5 43 6 316 47 640-24 913-186 17-10 29-19 46-29 31-18 59-41 88-62 15-11 28-21 41-34 8-7 12-9 20-16l61-56 5-5 2-2 18-18c14-16 33-31 46-48 32-43 59-71 100-126 11-15 20-29 30-45 20-30 40-61 56-94 9-19 17-31 26-49 31-61 97-211 102-273 19 22 45 81 59 107 20 36 36 74 58 109l231 435c7 15 13 22 20 36 27 54 65 133 99 178 33 44 69 76 117 105 135 81 316 67 438-29 12-9 21-17 31-27 20-20 40-41 55-66 35-57 75-145 104-193 8-14 13-24 20-38l103-194c8-16 15-26 22-40 45-91 97-181 144-271l64-119c56-103 108-208 166-311l124-235c8-14 13-23 21-38 8-16 14-24 22-40l42-79c8-13 13-25 20-39l228-428c71-129 65-279-9-404-8-14-14-20-23-33l-32-36c-5-5-2-2-7-6l-45-37c-34-26-71-41-112-54-56-19-129-21-191-9-89 18-150 59-210 117-16 16-37 44-48 63l-56 107c-6 12-13 23-19 36-12 24-24 49-37 74l-445 868c-6 12-13 24-19 36l-36 71c-4 7-5 10-9 17-3 6-2 4-4 9-3 5-2 5-5 11-35 62-68 122-85 192l-9 30c0 1-1 4-2 5-3 7-1 3-3 6-9-40-20-84-39-121-6-12-12-24-19-37l-647-1260c-4-7-5-9-9-17-54-108-174-200-306-214-14-1-41-5-52-4-147 12-270 78-339 207-51 95-59 198-30 302 19 69 83 169 118 238 7 14 13 24 21 38l145 273h-722c-108 0-206 8-280 82-33 33-57 59-78 102-88 175-10 400 174 470 73 28 142 22 239 22h265c-12 22-30 46-46 65-66 76-88 100-178 158-7 5-9 6-16 10-7 3-11 6-19 10-170 87-413 101-583 15-52-26-101-55-144-94-43-38-80-81-114-128-11-16-20-32-30-49-93-162-114-376-54-554 10-29 19-55 31-80l63-107c30-44 68-82 108-117 51-46 111-80 175-106 139-56 169-18 300-150 19-19 33-44 47-67 58-95 65-245 17-345-20-42-45-80-77-113l-12-11c-27-24-54-47-87-63-163-82-362-17-517 49l-135 68c-88 53-155 99-234 168-33 28-77 67-102 100l-28 31c-53 63-102 127-145 198-21 35-38 65-57 103-97 193-156 402-156 654 0 71 5 139 14 205 1 7 6 32 6 40-1 18-29 52-40 68l-142 168-60 51c-8 6-15 12-24 19-10 7-17 11-27 19-99 72-268 136-397 136-39 0-82 3-122-2-16-2-25-3-41-5-44-7-100-23-138-39-160-66-289-186-364-341-103-215-85-462 36-665 56-94 138-172 232-229l89-45 99-32c34-10 73-14 111-19 102-15 178-7 263-67 6-4 12-9 19-14 81-66 148-167 148-283 0-87-11-150-52-219-6-10-10-18-18-28-43-57-87-95-154-127-146-71-389-20-526 12l-102 31c-24 8-42 15-64 24s-42 18-64 27c-80 33-156 82-227 129s-135 104-195 164c-31 31-58 57-85 91-67 83-131 169-179 265-6 12-11 19-16 30-6 13-9 20-14 31l-52 125c-52 138-85 301-85 454zM8553 4947l1-7c-17-4-38-13-54-19-69-26-44-26-111-1-17 6-41 13-55 20v-95l-147-82-10-1c-37 17-157 56-181 69-118 66-39 257 102 200l183-68c12-4 36-16 49-17 0 43-5 161 2 194 17 81 114 118 182 64 18-14 33-37 39-63 5-23 9-173 0-196z" style="fill:#ed3124" transform="matrix(.096 0 0 .096 -63.84 -389.28)"/><path d="M8443 4444v13l58 163c15-1 106-55 126-67 10-6 10-13 14-3 7-11-2-5 9-15l107-305c9-26 15-34 14-67 0-59-44-100-94-108h-35c-22 4-43 14-61 32s-20 25-30 51z" style="fill:#f36f21" transform="matrix(.096 0 0 .096 -63.84 -389.28)"/><path d="m8237 4537 6 9 105 58c13 8 24 12 35 20l59-167v-13l-86-245c-18-51-32-127-103-142-3-1-7-1-10-2h-34c-50 7-92 45-96 106-2 32 24 96 36 127 16 42 28 83 43 123 8 20 14 40 21 60 4 12 6 20 11 32 5 13 8 19 11 33zM8651 4535c-11 10-2 4-9 15l-59 168 118 44h10l244-140c43-24 106-56 88-141-14-64-79-99-140-84-22 6-167 92-200 110-18 10-33 20-51 28z" style="fill:#ed3124" transform="matrix(.096 0 0 .096 -63.84 -389.28)"/><path d="m8178 4763 10 1c12-10 100-37 118-46-6-13-10-29-15-43l-31-87c-4-13-10-31-16-43l-6-9-148-85c-13-7-86-50-100-54-18-5-53-5-71 2-34 12-68 46-73 84-14 102 63 123 136 167l148 84c11 6 42 22 49 28zM8554 4940l-1 7c15 1 78 26 95 33 15 6 29 11 45 17l92 35c52 21 103 11 137-32 45-57 24-138-32-168-14-7-29-12-45-18l-136-52h-10l-147 83 1 95z" style="fill:#f36f21" transform="matrix(.096 0 0 .096 -63.84 -389.28)"/></g></svg>