<svg xmlns="http://www.w3.org/2000/svg" xml:space="preserve" x="0px" y="0px" viewBox="0 0 927 269"><path fill="none" d="M0 0h927v269H0z"/><path fill="#E60012" d="M190.755 240.76c-29.014 28.987-76.494 28.987-105.509 0l-53.603-53.554C2.626 158.219 2.626 110.781 31.64 81.794L85.245 28.24c29.016-28.987 76.495-28.987 105.509 0l53.605 53.554c29.014 28.987 29.014 76.425 0 105.412l-53.604 53.554z"/><path fill="#FFF" d="M106.208 213.166a7.893 7.893 0 0 1-7.911-7.586 7.875 7.875 0 0 1 2.086-5.692 7.864 7.864 0 0 1 5.506-2.551c4.361-.208 8.066 3.215 8.251 7.585.179 4.363-3.228 8.057-7.594 8.236a6.328 6.328 0 0 1-.338.008zM135.051 66.982c-4.35 0-7.833 1.36-10.651 4.156-6.077 6.037-9.268 18.495-8.983 35.078.342 20.445 5.216 60.557 21.311 81.211 2.609 3.344 5.415 6.016 8.34 7.944 2.834 1.873 6.014 3.701 10.98 3.701 1.344 0 2.792-.137 4.301-.407 9.232-2.213 20.792-12.477 29.39-26.136a7.082 7.082 0 0 1 6.025-3.325 7.08 7.08 0 0 1 3.775 1.091 7.068 7.068 0 0 1 3.149 4.437 7.033 7.033 0 0 1-.913 5.357c-10.874 17.277-25.23 29.409-38.402 32.453a2.351 2.351 0 0 1-.329.073c-2.416.442-4.791.668-7.051.668-8.496 0-14.489-3.233-18.76-6.051-4.222-2.79-8.164-6.515-11.721-11.07-22.661-29.076-24.211-83.581-24.314-89.701-.244-14.505 1.845-34.157 13.186-45.403 5.534-5.485 12.468-8.266 20.609-8.266l1.321.001c8.162 0 15.105 2.781 20.637 8.266 11.34 11.246 13.43 30.898 13.186 45.403-.257 15.113-3.031 44.384-18.714 70.63a7.157 7.157 0 0 1-6.112 3.459 7.08 7.08 0 0 1-3.637-1.004c-3.36-2.004-4.465-6.374-2.462-9.741 10.978-18.365 16.286-38.57 16.704-63.587.283-16.589-2.908-29.047-8.985-35.079-2.816-2.797-6.293-4.156-10.631-4.156l-1.249-.002z"/><g fill="#E60012"><path d="M426.539 137.366v7.795H319.461v-7.795h45.561v-10.724h-25.216c-4.386 0-8.16-3.408-8.16-8.037V99.966h69.133V89.125h-69.133v-7.798h84.604v26.557h-68.891v7.433c0 2.435.851 3.288 3.046 3.288h67.306v8.037h-36.853v10.724h45.681zm-5.359 45.314-4.509 6.82c-9.136-.853-30.82-7.675-43.734-21.927-12.91 14.252-34.229 21.074-43.731 21.927l-4.506-6.82c9.137-1.342 34.475-12.794 39.714-30.333h17.05c5.238 17.539 30.58 29.112 39.716 30.333M492.152 153.285c6.094 0 9.502.123 12.185-2.19v-24.243h-22.292v-8.037h22.292V79.5h15.471v108.907h-15.471V159.5c-2.193 1.217-6.09 1.95-12.185 1.95h-31.788c-6.338 0-10.481-4.753-10.481-10.355V88.723h44.343v8.165h-28.747v52.381c0 2.436.851 4.017 3.777 4.017h22.896zM530.647 79.5h15.471v108.901h-15.471V79.5zM606.279 106.423c0 21.927 15.346 40.322 28.87 46.655l-6.095 6.091c-7.429-1.95-22.289-12.791-30.453-26.313-7.675 13.645-22.536 24.243-30.451 26.19l-5.971-5.968c13.885-6.09 27.531-24 27.531-46.532V82.549h16.57v23.874zM645.745 79.5h16.076v108.901h-16.076V79.5zM729.154 147.597c6.21 0 9.379.12 12.182-2.193V118.97h-20.951v-8.042h20.951V79.5h15.594v108.907h-15.594v-34.963c-2.313 1.339-5.971 1.947-12.182 1.947h-34.227c-4.873 0-7.921-3.288-7.921-7.674V83.763h15.835v59.813c0 2.436 1.099 4.021 3.897 4.021h22.416zM767.526 79.5h15.469v108.901h-15.469V79.5zM813.599 157.705c-6.453 0-9.869-3.893-9.869-9.863v-64.32h56.89v74.183h-47.021zm8.649-8.038h22.903V91.562h-25.705v55.303c0 1.827.729 2.802 2.802 2.802m71.992-35.812h18.03v7.917h-18.03v66.635h-15.836V79.5h15.836v34.355z"/></g></svg>